# xmcd
#
# Track frame offsets:
#	150
#	12176
#	28170
#	42457
#	58713
#	72259
#	85855
#	101543
#	118052
#	130788
#	142720
#	153926
#	168105
#	184066
#	195276
#	207621
#	221646
#	235775
#	250326
#	267203
#
# Disc length: 3777 seconds
#
# Revision: 0
# Processed by: cddbd v1.5.1PL0 Copyright (c) Steve Scherf et al.
# Submitted via: EasyCDDAExtractor 7.1.3.1
#
DISCID=140ebf14
DTITLE=Los 20 Boleros - Mas Hermosos
DYEAR=2001
DGENRE=Blues
TTITLE0=Entrega total
TTITLE1=Sabor a mi
TTITLE2=Sombras nada mas
TTITLE3=Piel canela
TTITLE4=Usted
TTITLE5=Sabor a nada
TTITLE6=Regalame esta noche
TTITLE7=Corazon corazon
TTITLE8=Noche no te vayas
TTITLE9=Te vengo a preguntar
TTITLE10=La mentira
TTITLE11=El reloj
TTITLE12=La montaña
TTITLE13=Historia de un amor
TTITLE14=Obsesion
TTITLE15=Pecado
TTITLE16=Aunque me cueste la vida
TTITLE17=La almohada
TTITLE18=Como no voy a quererte
TTITLE19=Si tu supieras
EXTD=
EXTT0=
EXTT1=
EXTT2=
EXTT3=
EXTT4=
EXTT5=
EXTT6=
EXTT7=
EXTT8=
EXTT9=
EXTT10=
EXTT11=
EXTT12=
EXTT13=
EXTT14=
EXTT15=
EXTT16=
EXTT17=
EXTT18=
EXTT19=
PLAYORDER=
